<?xml version="1.0" encoding="UTF-8" standalone="no"?>
<svg width="350px" height="350px" viewBox="0 0 350 350" version="1.1" xmlns="http://www.w3.org/2000/svg" xmlns:xlink="http://www.w3.org/1999/xlink" style="background: #FFFFFF;">
    <!-- Generator: Sketch 40.3 (33839) - http://www.bohemiancoding.com/sketch -->
    <title>Light Copy</title>
    <desc>Created with Sketch.</desc>
    <defs></defs>
    <g id="Page-1" stroke="none" stroke-width="1" fill="none" fill-rule="evenodd">
        <g id="Light-Copy" fill="#000000">
            <path d="M301.36211,106.20595 C298.900763,103.738657 295.55751,102.351852 292.070809,102.351852 C288.584107,102.351852 285.240855,103.738657 282.779507,106.20595 L239.162291,149.782904 L200.36143,111.01809 L243.978906,67.4413373 C247.316641,64.1286279 248.626892,59.2858625 247.414203,54.7442837 C246.201514,50.2027048 242.650966,46.655456 238.105164,45.4438935 C233.559362,44.2323309 228.712094,45.5413652 225.396304,48.8759985 L181.74896,92.4526356 L163.047264,73.7387048 C158.872533,69.4521429 152.142286,68.9791759 147.408039,72.639661 C144.913246,74.6834835 143.401397,77.6871769 143.246951,80.9067782 C143.092504,84.1263795 144.309906,87.2607537 146.597627,89.5335705 C148.059683,90.9983587 148.878901,92.9837546 148.874812,95.0523835 C148.870723,97.1210124 148.043662,99.10316 146.575826,100.562167 L116.694961,130.415359 C94.6946445,152.434424 89.1383561,185.990746 102.868979,213.915187 C94.8710217,220.1232 91.725359,230.734897 95.0497134,240.292989 L48.0407023,287.284153 C43.9856423,291.337693 43.9865484,297.907676 48.0427263,301.9601 L48.0427263,301.9601 C52.0989187,306.01251 58.6750112,306.013415 62.7323212,301.962123 L109.767094,254.996957 C119.334153,258.31797 129.955628,255.175116 136.169424,247.18461 C164.117532,260.917814 197.714365,255.365306 219.746985,233.371847 L249.628255,203.518627 C251.059384,202.049198 253.017392,201.209771 255.069415,201.18592 C257.121439,201.16207 259.098464,201.955759 260.563424,203.391526 C262.83015,205.71772 265.980707,206.970143 269.227426,206.835679 C272.474144,206.701215 275.510137,205.192573 277.576379,202.686927 C281.240385,197.957172 280.767127,191.233164 276.47666,187.062232 L257.745154,168.378025 L301.36211,124.771519 C303.831768,122.31245 305.219907,118.972254 305.219907,115.488734 C305.219907,112.005215 303.831768,108.665019 301.36211,106.20595 L301.36211,106.20595 Z M180.143287,193.181456 C173.731008,199.587716 163.334706,199.587683 156.922468,193.181382 C150.510231,186.775081 150.510231,176.388437 156.922468,169.982136 C163.334706,163.575835 173.731008,163.575802 180.143287,169.982062 C186.550693,176.390419 186.550693,186.773099 180.143287,193.181456 L180.143287,193.181456 Z" id="Shape"></path>
        </g>
    </g>
</svg>