<?xml version="1.0" encoding="UTF-8" standalone="no"?>
<svg width="550px" height="350px" viewBox="0 0 550 350" version="1.1" xmlns="http://www.w3.org/2000/svg" xmlns:xlink="http://www.w3.org/1999/xlink">
    <!-- Generator: Sketch 40.3 (33839) - http://www.bohemiancoding.com/sketch -->
    <title>projects copy 4</title>
    <desc>Created with Sketch.</desc>
    <defs></defs>
    <g id="Page-1" stroke="none" stroke-width="1" fill="none" fill-rule="evenodd">
        <g id="projects-copy-4">
            <g id="Group" transform="translate(173.000000, 126.000000)">
                <rect id="Rectangle" fill="#F4F4F4" x="13" y="16" width="179" height="116"></rect>
                <rect id="Rectangle" fill="#F4F4F4" x="33.0758468" y="145" width="22.9241532" height="11"></rect>
                <rect id="Rectangle" fill="#F4F4F4" x="148" y="145" width="22.9241532" height="11"></rect>
                <path d="M191.375297,135.408082 L12.6247236,135.408082 C10.7284008,135.408082 9.1929132,133.862072 9.1929132,131.955282 L9.1929132,16.9284308 C9.1929132,15.0216205 10.7284008,13.4756308 12.6247236,13.4756308 C14.5210464,13.4756308 16.056534,15.0216205 16.056534,16.9284308 L16.056534,128.502482 L187.943507,128.502482 L187.943507,16.9284308 C187.943507,15.0216205 189.478994,13.4756308 191.375317,13.4756308 C193.27164,13.4756308 194.807128,15.0216205 194.807128,16.9284308 L194.807128,131.955262 C194.807107,133.862072 193.271599,135.408082 191.375297,135.408082 L191.375297,135.408082 Z" id="Shape" fill="#000000"></path>
                <path d="M102,113.876944 C80.342748,113.876944 62.7266748,96.1594256 62.7266748,74.3823795 C62.7266748,52.6073846 80.342748,34.8898462 102,34.8898462 C123.657252,34.8898462 141.273325,52.6073641 141.273325,74.3823795 C141.273325,96.1594256 123.657252,113.876944 102,113.876944 L102,113.876944 Z" id="Shape" fill="#000000"></path>
                <path d="M69.5902752,74.3823795 C69.5902752,92.3518564 84.1313544,106.971344 102,106.971344 C119.868646,106.971344 134.409725,92.3518564 134.409725,74.3823795 C134.409725,56.4129026 119.868646,41.7954462 102,41.7954462 C84.1313544,41.7954462 69.5902752,56.4129026 69.5902752,74.3823795 Z" id="Path" fill="#F2913C"></path>
                <path d="M200.56819,20.3812308 L3.4318104,20.3812308 C1.5354876,20.3812308 0,18.835241 0,16.9284308 L0,3.93961026 C0,2.0328 1.5354876,0.486810256 3.4318104,0.486810256 L200.56819,0.486810256 C202.464512,0.486810256 204,2.03282051 204,3.93961026 L204,16.9284308 C204,18.835241 202.464512,20.3812308 200.56819,20.3812308 L200.56819,20.3812308 Z" id="Shape" fill="#000000"></path>
                <polygon id="Path" fill="#F4F4F4" points="6.8636208 13.4756308 197.1364 13.4756308 197.1364 7.39241026 6.8636208 7.39241026"></polygon>
                <path d="M102,97.2599795 C100.103677,97.2599795 98.5681896,95.7139692 98.5681896,93.8071795 L98.5681896,54.9576205 C98.5681896,53.0508103 100.103677,51.5048205 102,51.5048205 C103.896323,51.5048205 105.43181,53.0508103 105.43181,54.9576205 L105.43181,93.8071795 C105.43181,95.7139692 103.896323,97.2599795 102,97.2599795 L102,97.2599795 Z" id="Shape" fill="#FFFFFF"></path>
                <path d="M85.245888,87.5485949 C84.0591996,87.5485949 82.9045596,86.9277744 82.2671208,85.8191795 C81.3209688,84.1683692 81.8862528,82.0579897 83.5259844,81.1045744 L117.042226,61.6797949 C118.689974,60.7304205 120.782729,61.2948103 121.7329,62.9476308 C122.679052,64.598441 122.113768,66.7088205 120.474036,67.6622359 L86.9577948,87.0870154 C86.4165624,87.3994256 85.8272064,87.5485949 85.245888,87.5485949 L85.245888,87.5485949 Z" id="Shape" fill="#FFFFFF"></path>
                <path d="M117.042226,87.0870154 L83.5259844,67.6622359 C81.8862528,66.708841 81.3209688,64.598441 82.2671208,62.9476308 C83.2172712,61.2948103 85.310046,60.7304205 86.9577948,61.6797949 L120.474036,81.1045744 C122.113768,82.0579692 122.679052,84.1683692 121.7329,85.8191795 C121.09544,86.9277744 119.9408,87.5485949 118.754112,87.5485949 C118.172794,87.5485949 117.583438,87.3994256 117.042226,87.0870154 Z" id="Shape" fill="#FFFFFF"></path>
                <path d="M57.5468904,119.962195 L25.4258256,119.962195 C23.5295028,119.962195 21.9940152,118.416185 21.9940152,116.509395 C21.9940152,114.602605 23.5295028,113.056595 25.4258256,113.056595 L57.5468904,113.056595 C59.4432132,113.056595 60.9787008,114.602605 60.9787008,116.509395 C60.9787008,118.416185 59.4432132,119.962195 57.5468904,119.962195 L57.5468904,119.962195 Z" id="Shape" fill="#9B9B9B"></path>
                <path d="M41.486358,107.324082 L25.4258256,107.324082 C23.5295028,107.324082 21.9940152,105.778092 21.9940152,103.871282 C21.9940152,101.964472 23.5295028,100.418482 25.4258256,100.418482 L41.486358,100.418482 C43.3826604,100.418482 44.9181684,101.964472 44.9181684,103.871282 C44.9181684,105.778092 43.3826808,107.324082 41.486358,107.324082 L41.486358,107.324082 Z" id="Shape" fill="#9B9B9B"></path>
                <path d="M178.574154,119.962195 L146.45311,119.962195 C144.556787,119.962195 143.021299,118.416185 143.021299,116.509395 C143.021299,114.602605 144.556787,113.056595 146.45311,113.056595 L178.574154,113.056595 C180.470477,113.056595 182.005964,114.602605 182.005964,116.509395 C182.005964,118.416185 180.470477,119.962195 178.574154,119.962195 L178.574154,119.962195 Z" id="Shape" fill="#9B9B9B"></path>
                <path d="M178.574154,107.324082 L162.513642,107.324082 C160.617319,107.324082 159.081832,105.778092 159.081832,103.871282 C159.081832,101.964472 160.617319,100.418482 162.513642,100.418482 L178.574154,100.418482 C180.470477,100.418482 182.005964,101.964472 182.005964,103.871282 C182.005964,105.778092 180.470477,107.324082 178.574154,107.324082 L178.574154,107.324082 Z" id="Shape" fill="#9B9B9B"></path>
                <path d="M181.364507,147.927241 L22.5192132,147.927241 C15.1705008,147.927241 9.1928928,141.864185 9.1928928,134.412328 L9.1928928,131.955262 C9.1928928,130.048472 10.7283804,128.502462 12.6247032,128.502462 L191.375276,128.502462 C193.271599,128.502462 194.807087,130.048472 194.807087,131.955262 L194.807087,134.412328 C194.807107,141.991179 188.901654,147.927241 181.364507,147.927241 L181.364507,147.927241 Z" id="Shape" fill="#000000"></path>
                <path d="M16.1286888,135.408082 C16.5817116,138.625067 19.2277344,141.021662 22.5192336,141.021662 L181.364527,141.021662 C184.716145,141.021662 187.406273,138.625067 187.871332,135.408082 L16.1286888,135.408082 L16.1286888,135.408082 Z" id="Path" fill="#F4F4F4"></path>
                <path d="M54.9850584,159.513169 L34.3862196,159.513169 C32.4899172,159.513169 30.9544092,157.967179 30.9544092,156.060369 L30.9544092,144.474462 C30.9544092,142.567651 32.4898968,141.021662 34.3862196,141.021662 C36.2825424,141.021662 37.81803,142.567672 37.81803,144.474462 L37.81803,152.60759 L51.5532684,152.60759 L51.5532684,144.474462 C51.5532684,142.567651 53.088756,141.021662 54.9850788,141.021662 C56.8814016,141.021662 58.4168892,142.567672 58.4168892,144.474462 L58.4168892,156.06039 C58.4168688,157.967179 56.8813812,159.513169 54.9850584,159.513169 L54.9850584,159.513169 Z" id="Shape" fill="#000000"></path>
                <path d="M169.497521,159.513169 L149.014942,159.513169 C147.118619,159.513169 145.583131,157.967179 145.583131,156.060369 L145.583131,144.474462 C145.583131,142.567651 147.118619,141.021662 149.014942,141.021662 C150.911264,141.021662 152.446752,142.567672 152.446752,144.474462 L152.446752,152.60759 L166.06571,152.60759 L166.06571,144.474462 C166.06571,142.567651 167.601198,141.021662 169.497521,141.021662 C171.393844,141.021662 172.929331,142.567672 172.929331,144.474462 L172.929331,156.06039 C172.929331,157.967179 171.393844,159.513169 169.497521,159.513169 L169.497521,159.513169 Z" id="Shape" fill="#000000"></path>
            </g>
            <path d="M226,89.5990096 C226,84.1191253 230.832351,79.659679 236.776876,79.659679 C237.963769,79.659679 238.932251,78.769115 238.932251,77.6718129 L238.932251,63.7567501 C238.932251,61.5608206 240.860593,59.7810178 243.243001,59.7810178 C245.625409,59.7810178 247.553752,61.5608206 247.553752,63.7567501 L247.553752,77.6718129 C247.553752,83.1516971 242.7214,87.6111435 236.776876,87.6111435 C235.589983,87.6111435 234.621501,88.5017075 234.621501,89.5990096 L234.621501,99.5383402 C234.621501,101.73427 232.693158,103.514072 230.31075,103.514072 C227.928342,103.514072 226,101.73427 226,99.5383402 L226,89.5990096 Z" id="Shape" fill="#4A4A4A"></path>
            <path d="M266.927733,99.5383402 L266.927733,89.5990096 C266.927733,84.1191253 271.760084,79.659679 277.704609,79.659679 C278.891502,79.659679 279.859984,78.769115 279.859984,77.6718129 L279.859984,63.7567501 C279.859984,61.5608206 281.788326,59.7810178 284.170734,59.7810178 C286.553142,59.7810178 288.481484,61.5608206 288.481484,63.7567501 L288.481484,77.6718129 C288.481484,83.1516971 283.649133,87.6111435 277.704609,87.6111435 C276.517715,87.6111435 275.549233,88.5017075 275.549233,89.5990096 L275.549233,99.5383402 C275.549233,101.73427 273.620891,103.514072 271.238483,103.514072 C268.856075,103.514072 266.927733,101.73427 266.927733,99.5383402 L266.927733,99.5383402 Z" id="Shape" fill="#4A4A4A"></path>
            <path d="M306.718584,99.5383402 L306.718584,89.5990096 C306.718584,84.1191253 311.550935,79.659679 317.49546,79.659679 C318.682353,79.659679 319.650835,78.769115 319.650835,77.6718129 L319.650835,63.7567501 C319.650835,61.5608206 321.579177,59.7810178 323.961585,59.7810178 C326.343993,59.7810178 328.272336,61.5608206 328.272336,63.7567501 L328.272336,77.6718129 C328.272336,83.1516971 323.439985,87.6111435 317.49546,87.6111435 C316.308567,87.6111435 315.340085,88.5017075 315.340085,89.5990096 L315.340085,99.5383402 C315.340085,101.73427 313.411743,103.514072 311.029335,103.514072 C308.646927,103.514072 306.718584,101.73427 306.718584,99.5383402 L306.718584,99.5383402 Z" id="Shape" fill="#4A4A4A"></path>
        </g>
    </g>
</svg>