<?xml version="1.0" encoding="UTF-8" standalone="no"?>
<svg width="550px" height="350px" viewBox="0 0 550 350" version="1.1" xmlns="http://www.w3.org/2000/svg" xmlns:xlink="http://www.w3.org/1999/xlink">
    <!-- Generator: Sketch 40.3 (33839) - http://www.bohemiancoding.com/sketch -->
    <title>Appliances large</title>
    <desc>Created with Sketch.</desc>
    <defs></defs>
    <g id="Page-1" stroke="none" stroke-width="1" fill="none" fill-rule="evenodd">
        <g id="Appliances-large" fill="#282828">
            <g id="Group-2" transform="translate(127.000000, 22.000000)">
                <g id="Group" transform="translate(151.000000, 84.000000)">
                    <path d="M18.1963672,215.8395 C19.3032868,219.151 22.4487835,221.47275 25.9909263,221.47275 L39.8643192,221.47275 C43.3234431,221.47275 46.3859208,219.21575 47.5389621,215.95975 L97.239654,215.95975 C98.4203683,219.0955 101.344481,221.3525 104.794381,221.3525 L119.092093,221.3525 C122.874068,221.3525 126.148705,218.77175 126.77596,215.8395 L126.803633,215.8025 C138.112662,214.97 143.868644,209.29975 143.92399,198.90275 C143.933214,197.617 143.92399,196.33125 143.933214,195.0455 C143.933214,195.03625 143.942439,195.027 143.942439,195.0085 C143.942439,194.99 143.933214,194.99 143.933214,194.98075 C144.062355,170.015 144.043906,145.04925 144.016233,119.75975 L143.997785,90.835 L144.016233,56.388 C144.034682,43.29925 144.053131,30.31225 143.942439,17.316 C143.850195,7.1225 136.793583,0.54575 125.954994,0.54575 L72.4538783,0.52725 L18.9435379,0.54575 C8.04960379,0.555 1.02066406,7.548 1.0022154,18.3705 C0.96531808,31.0615 0.974542411,43.76175 0.983766741,56.943 L0.983766741,82.695 C0.983766741,82.7135 0.974542411,82.72275 0.974542411,82.74125 C0.974542411,82.75975 0.983766741,82.769 0.983766741,82.7875 L0.983766741,89.34575 C0.983766741,89.36425 0.974542411,89.3735 0.974542411,89.392 L0.974542411,198.1905 C0.992991071,208.80025 7.55148996,215.5065 18.1963672,215.8395 L18.1963672,215.8395 Z M136.609096,89.3735 C136.609096,89.3735 136.609096,89.38275 136.609096,89.3735 L136.609096,90.835 L136.609096,92.5555 L136.609096,92.56475 L136.627545,119.88 C136.655218,143.82825 136.645993,167.573 136.535301,191.31775 L8.3540067,191.31775 L8.3540067,92.611 C8.3540067,92.5925 8.36323103,92.58325 8.36323103,92.56475 L8.36323103,86.44125 L136.609096,86.44125 L136.609096,89.3735 L136.609096,89.3735 Z M124.396083,208.50425 C124.331512,208.50425 124.276166,208.5505 124.211596,208.55975 L20.7146094,208.55975 L20.7146094,208.55975 C20.1611496,208.50425 19.6076897,208.44875 19.0450056,208.44875 C14.2852511,208.44875 8.67685826,206.70975 8.40012835,198.71775 L136.516853,198.71775 L136.516853,198.875 C136.479955,206.7745 132.052277,208.384 124.396083,208.50425 L124.396083,208.50425 Z M8.38167969,18.37975 C8.38167969,11.55325 12.0345145,7.94575 18.9435379,7.9365 L72.4538783,7.918 L125.954994,7.9365 C130.760871,7.9365 136.498404,9.57375 136.55375,17.38075 C136.664442,30.34 136.645993,43.3085 136.627545,56.43425 L136.609096,79.032 L8.36323103,79.032 L8.36323103,56.758 C8.3540067,43.76175 8.34478237,31.07075 8.38167969,18.37975 L8.38167969,18.37975 Z" id="Shape"></path>
                    <path d="M22.6332701,140.415 L28.158644,140.415 C30.197221,140.415 31.8483761,138.75 31.8483761,136.715 C31.8483761,134.68 30.1879967,133.015 28.158644,133.015 L26.3322266,133.015 L26.3322266,106.62475 L28.158644,106.62475 C30.197221,106.62475 31.8483761,104.95975 31.8483761,102.92475 C31.8483761,100.88975 30.1879967,99.22475 28.158644,99.22475 L22.6332701,99.22475 C20.5946931,99.22475 18.9435379,100.88975 18.9435379,102.92475 L18.9435379,136.715 C18.9435379,138.75 20.6039174,140.415 22.6332701,140.415 L22.6332701,140.415 Z" id="Shape"></path>
                    <path d="M22.6332701,59.83825 L28.158644,59.83825 C30.197221,59.83825 31.8483761,58.17325 31.8483761,56.13825 C31.8483761,54.10325 30.1879967,52.43825 28.158644,52.43825 L26.3322266,52.43825 L26.3322266,37.36075 L28.158644,37.36075 C30.197221,37.36075 31.8483761,35.69575 31.8483761,33.66075 C31.8483761,31.62575 30.1879967,29.96075 28.158644,29.96075 L22.6332701,29.96075 C20.5946931,29.96075 18.9435379,31.62575 18.9435379,33.66075 L18.9435379,56.13825 C18.9435379,58.17325 20.6039174,59.83825 22.6332701,59.83825 L22.6332701,59.83825 Z" id="Shape"></path>
                    <path d="M64.8714788,20.7755 L80.1192969,20.7755 C82.1578739,20.7755 83.809029,19.1105 83.809029,17.0755 C83.809029,15.0405 82.1486496,13.3755 80.1192969,13.3755 L64.8714788,13.3755 C62.8329018,13.3755 61.1817467,15.03125 61.1817467,17.0755 C61.1817467,19.11975 62.8421261,20.7755 64.8714788,20.7755 L64.8714788,20.7755 Z" id="Shape"></path>
                </g>
                <g id="miscellaneous-70-final" transform="translate(0.000000, 158.000000)">
                    <path d="M117,58.3183594 C117,26.1613125 90.7571065,0 58.5,0 C26.2428935,0 0,26.1613125 0,58.3183594 C0.0178180973,86.2883381 19.764642,110.293025 47.0294118,115.488377 L47.0294118,122.5625 L40.1470588,122.5625 C27.4830029,122.577104 17.2203705,132.921969 17.2058824,145.6875 C17.2059457,146.964632 18.23302,147.999936 19.5,148 L97.5,148 C98.76698,147.999936 99.7940543,146.964632 99.7941176,145.6875 C99.7796295,132.921969 89.5169971,122.577104 76.8529412,122.5625 L69.9705882,122.5625 L69.9705882,115.495153 C97.2378463,110.299329 116.985415,86.2908922 117,58.3183594 L117,58.3183594 Z M76.8529412,127.1875 C86.097722,127.199348 93.8952395,134.130786 95.0630621,143.375 L21.936915,143.375 C23.1047387,134.130777 30.9022693,127.199337 40.1470588,127.1875 L76.8529412,127.1875 Z M51.6176471,122.5625 L51.6176471,115.625 L65.3823529,115.625 L65.3823529,122.5625 L51.6176471,122.5625 Z M68.2904682,111.094431 C68.093805,111.039104 48.9157156,111.037335 48.7231932,111.090199 C23.2429738,106.650115 4.62076733,84.3836821 4.58823529,58.3183594 C4.58823529,28.7114681 28.7728235,4.625 58.5,4.625 C88.2271765,4.625 112.411765,28.7114681 112.411765,58.3183594 C112.382332,84.380869 93.7667687,106.648037 68.2904682,111.094431 L68.2904682,111.094431 Z" id="Shape"></path>
                    <path d="M106.108057,59.509875 C107.536413,52.9554094 106.149197,46.0977331 102.288971,40.6302897 C97.6856859,33.9455112 92.2076082,32.5421822 88.42275,32.5421822 C86.2909067,32.5248175 84.1815106,32.9817123 82.2449206,33.8802987 L82.1292626,33.9385969 L82.0170344,34.0033469 C79.1285976,35.8119273 76.440958,37.9276152 74.0002403,40.3141016 L73.7951806,40.5008359 C74.2561874,39.3562887 74.644539,38.1833547 74.9578853,36.9891312 C76.6098465,31.3874464 76.0212988,25.3565092 73.3181647,20.1866681 C69.5823248,13.3319998 62.3912784,9.12287355 54.6335056,9.25 C49.693356,9.28656281 44.8751148,10.8002854 40.789125,13.5994194 C30.8066162,20.4175134 31.9881212,29.7302631 34.0077132,33.7019009 L34.0673603,33.8192603 L34.1335915,33.9330931 C35.8921869,36.7310892 37.9439673,39.3304958 40.2535976,41.6865472 C39.7709459,41.5046305 39.2878009,41.3374214 38.8041626,41.1849197 C36.3174173,40.3830279 33.7239847,39.9677209 31.1131332,39.9532937 C27.9887833,39.9210478 24.9003753,40.626942 22.0953812,42.0144134 C16.7719411,44.6212594 12.7995258,49.3871986 11.1698868,55.1223687 C9.41966523,61.6240413 10.4517621,68.5674792 14.0155447,74.2665503 C18.6967491,81.9372169 24.8493891,83.0828178 28.1001997,83.0828178 C29.9844354,83.0988128 31.8527473,82.7340422 33.594795,82.0100491 L33.7143071,81.955925 L33.8305271,81.8950253 C36.7681022,80.2189724 39.5187767,78.2300139 42.0353126,75.9623066 C41.7740356,76.6131944 41.5418709,77.2605441 41.3347809,77.9132009 C39.3982486,83.3869594 39.7001134,89.4122331 42.1738659,94.6614822 C45.8500193,101.970028 53.3452831,106.519201 61.4731765,106.375 C66.0379051,106.362147 70.5131382,105.09754 74.4193182,102.716694 C84.7936738,96.4360831 84.0437153,87.1279237 82.1974553,83.0836619 L82.1420753,82.9622556 L82.0798359,82.8442603 C80.3851222,79.9000634 78.3793525,77.1493465 76.0975456,74.6401347 C75.7909674,74.2776811 75.4832229,73.9128496 75.1743124,73.54564 C76.3949576,74.0449946 77.6472341,74.461866 78.9228318,74.7934881 C81.0981633,75.3676554 83.3366988,75.6627196 85.5853509,75.6716831 C95.3316416,75.7781688 103.852281,69.0680915 106.108057,59.509875 L106.108057,59.509875 Z M38.0907724,31.5922881 C38.0907724,31.5922881 34.1040662,23.7520344 43.3638018,17.4275897 C46.6864173,15.1402835 50.6100862,13.9034111 54.6335056,13.875 C60.7312001,13.7703862 66.3856244,17.0758256 69.3239682,22.4626884 C71.4286234,26.58617 71.8579853,31.3736244 70.5210847,35.8107275 C70.0360564,37.6011995 69.3712019,39.3371614 68.5368335,40.9916872 C61.7539818,36.8355977 53.1402355,37.2806336 46.8144759,42.1139897 C43.5927203,38.3381859 40.2170294,35.2445928 38.0907724,31.5922881 L38.0907724,31.5922881 Z M31.7152244,77.7909159 C30.5639148,78.2452589 29.3365296,78.4716884 28.1002112,78.4578178 C25.2607129,78.4578178 21.2459382,77.2873806 17.9226565,71.8417553 C12.6018291,63.1300128 14.129115,51.1891762 24.1436153,46.1529444 C26.3136185,45.0887144 28.7000265,44.5495306 31.1130644,44.5782706 C33.2589828,44.5945134 35.3900571,44.9386034 37.4336453,45.5988116 C38.9839715,46.0990017 40.4852267,46.7422617 41.9183356,47.5204181 C37.7303598,54.3058659 38.0753539,62.9806564 42.7887353,69.4064037 C38.7889412,72.4944931 35.5077106,75.8047328 31.7152244,77.7909159 L31.7152244,77.7909159 Z M58.5,42.78125 C66.7355402,42.78125 73.4117647,49.5109699 73.4117647,57.8125 C73.4117647,66.1140301 66.7355402,72.84375 58.5,72.84375 C50.2644598,72.84375 43.5882353,66.1140301 43.5882353,57.8125 C43.5882353,49.5109699 50.2644598,42.78125 58.5,42.78125 L58.5,42.78125 Z M78.0293303,85.0169812 C78.0293303,85.0169812 81.6485418,92.9450984 72.0555741,98.7526069 C68.8609994,100.695865 65.2043194,101.731595 61.4731765,101.75 C55.0660782,101.904297 49.1436654,98.3254334 46.2593109,92.5563903 C44.3488618,88.3916682 44.1495674,83.6344336 45.7048915,79.3221841 C46.2762457,77.5789041 47.0243459,75.8996338 47.9373318,74.3109966 C54.5526512,78.645243 63.1135839,78.5071422 69.5879294,73.9617397 C72.6952085,77.9572541 76.0302476,81.2302278 78.0293303,85.0169812 L78.0293303,85.0169812 Z M93.4643603,69.1215038 C91.0423422,70.4260093 88.3310953,71.0884732 85.5853279,71.04666 C83.7213889,71.0370113 81.8660794,70.7907183 80.0632147,70.3135975 C78.289935,69.8384579 76.5678832,69.1868702 74.9224412,68.3684381 C79.25973,61.5725056 78.9920149,52.7847038 74.2492209,46.2698413 C77.8089229,43.1951644 80.7955888,40.0379197 84.2969744,38.0170259 C85.5971833,37.4429378 87.0033791,37.1532863 88.4227844,37.1671822 C91.2560197,37.1671822 95.1077744,38.3127022 98.5203432,43.2683319 C104.312486,51.6762003 103.342831,63.6262175 93.4643603,69.1215038 L93.4643603,69.1215038 Z" id="Shape"></path>
                    <path d="M58.5,67.640625 C63.8847763,67.640625 68.25,63.2404236 68.25,57.8125 C68.25,52.3845764 63.8847763,47.984375 58.5,47.984375 C53.1152237,47.984375 48.75,52.3845764 48.75,57.8125 C48.7561064,63.2378719 53.1177551,67.6344697 58.5,67.640625 L58.5,67.640625 Z M58.5,52.609375 C61.3507639,52.609375 63.6617647,54.9388934 63.6617647,57.8125 C63.6617647,60.6861066 61.3507639,63.015625 58.5,63.015625 C55.6492361,63.015625 53.3382353,60.6861066 53.3382353,57.8125 C53.3382353,54.9388934 55.6492361,52.609375 58.5,52.609375 L58.5,52.609375 Z" id="Shape"></path>
                    <path d="M36.7058824,135.28125 C36.7059457,136.558382 37.73302,137.593686 39,137.59375 L57.3529412,137.59375 C58.6199474,137.59375 59.6470588,136.558408 59.6470588,135.28125 C59.6470588,134.004092 58.6199474,132.96875 57.3529412,132.96875 L39,132.96875 C37.73302,132.968814 36.7059457,134.004118 36.7058824,135.28125 L36.7058824,135.28125 Z" id="Shape"></path>
                    <path d="M80.2941176,137.59375 L84.8823529,137.59375 C86.1493591,137.59375 87.1764706,136.558408 87.1764706,135.28125 C87.1764706,134.004092 86.1493591,132.96875 84.8823529,132.96875 L80.2941176,132.96875 C79.0271115,132.96875 78,134.004092 78,135.28125 C78,136.558408 79.0271115,137.59375 80.2941176,137.59375 L80.2941176,137.59375 Z" id="Shape"></path>
                </g>
                <g id="03" transform="translate(48.000000, 0.000000)">
                    <path d="M70.2928553,69.5462139 L38.7501712,37.0086087 L38.7501712,2.45659534 C38.7501712,1.0998552 37.650316,0 36.2935759,0 C34.9368357,0 33.8369806,1.0998552 33.8369806,2.45659534 L33.8369806,37.0086087 L2.29429645,69.5462139 C0.230483465,71.6714301 -0.360226858,74.8258187 0.794745517,77.5538045 C1.94971789,80.2817903 4.6258516,82.0530653 7.58825939,82.0502842 L22.4752271,82.0502842 L22.4752271,82.3205097 C22.475227,87.2595244 25.11016,91.8233623 29.3874722,94.2928697 C33.6647844,96.7623771 38.9346504,96.7623771 43.2119626,94.2928697 C47.4892748,91.8233623 50.1242077,87.2595244 50.1242076,82.3205097 L50.1242076,82.0502842 L64.9988924,82.0502842 C67.9613002,82.0530653 70.6374339,80.2817903 71.7924063,77.5538045 C72.9473786,74.8258187 72.3566683,71.6714301 70.2928553,69.5462139 L70.2928553,69.5462139 Z M45.198734,82.3082267 C45.198734,87.2298016 41.2090093,91.2195263 36.2874344,91.2195263 C31.3658595,91.2195263 27.3761348,87.2298016 27.3761348,82.3082267 L27.3761348,82.0380012 L45.198734,82.0380012 L45.198734,82.3082267 Z M67.308092,75.6262874 C66.9236368,76.5340115 66.0338074,77.1240071 65.0480243,77.1248106 L7.58825939,77.1248106 C6.60403525,77.1208717 5.71717042,76.5298773 5.33463441,75.6230262 C4.95209841,74.7161751 5.14774459,73.6685463 5.83179373,72.9608815 L36.2935759,41.5655931 L66.767641,72.9608815 C67.4510505,73.6704597 67.6444545,74.7196762 67.2589601,75.6262874 L67.308092,75.6262874 Z" id="Shape"></path>
                </g>
            </g>
        </g>
    </g>
</svg>