<?xml version="1.0" encoding="UTF-8" standalone="no"?>
<svg width="350px" height="350px" viewBox="0 0 350 350" version="1.1" xmlns="http://www.w3.org/2000/svg" xmlns:xlink="http://www.w3.org/1999/xlink">
    <!-- Generator: Sketch 40.3 (33839) - http://www.bohemiancoding.com/sketch -->
    <title>Light</title>
    <desc>Created with Sketch.</desc>
    <defs></defs>
    <g id="Page-1" stroke="none" stroke-width="1" fill="none" fill-rule="evenodd">
        <g id="Light" fill="#282828">
            <g id="03" transform="translate(77.000000, -1.000000)">
                <path d="M190.742453,188.688916 L105.150128,100.409697 L105.150128,6.66509771 C105.150128,2.98406589 102.165627,0 98.4840589,0 C94.8024907,0 91.8179899,2.98406589 91.8179899,6.66509771 L91.8179899,100.409697 L6.22566448,188.688916 C0.625426032,194.454934 -0.97748988,203.013246 2.15657351,210.414665 C5.2906369,217.816084 12.5524319,222.621809 20.5910431,222.614263 L60.987421,222.614263 L60.987421,223.347424 C60.9874207,236.747684 68.1374158,249.130035 79.7440723,255.830165 C91.3507288,262.530295 105.650719,262.530295 117.257376,255.830165 C128.864032,249.130035 136.014027,236.747684 136.014027,223.347424 L136.014027,222.614263 L176.377075,222.614263 C184.415686,222.621809 191.677481,217.816084 194.811544,210.414665 C197.945608,203.013246 196.342692,194.454934 190.742453,188.688916 L190.742453,188.688916 Z M122.648559,223.314099 C122.648559,236.667042 111.822282,247.491741 98.4673937,247.491741 C85.112505,247.491741 74.2862286,236.667042 74.2862286,223.314099 L74.2862286,222.580938 L122.648559,222.580938 L122.648559,223.314099 Z M182.643179,205.185033 C181.599945,207.647819 179.185358,209.248563 176.510396,209.250742 L20.5910431,209.250742 C17.9203118,209.240056 15.5137689,207.636603 14.4757422,205.176185 C13.4377156,202.715767 13.9686093,199.873399 15.8248038,197.953402 L98.4840589,112.773453 L181.176644,197.953402 C183.031103,199.87859 183.555912,202.725266 182.509858,205.185033 L182.643179,205.185033 Z" id="Shape"></path>
            </g>
        </g>
    </g>
</svg>