<?xml version="1.0" encoding="UTF-8" standalone="no"?>
<svg width="2211px" height="775px" viewBox="0 0 2211 775" version="1.1" xmlns="http://www.w3.org/2000/svg" xmlns:xlink="http://www.w3.org/1999/xlink">
    <!-- Generator: Sketch 40.3 (33839) - http://www.bohemiancoding.com/sketch -->
    <title>Foresight</title>
    <desc>Created with Sketch.</desc>
    <defs></defs>
    <g id="Page-1" stroke="none" stroke-width="1" fill="none" fill-rule="evenodd">
        <g id="Foresight">
            <g id="Group-2" transform="translate(44.000000, 24.000000)">
                <g id="Page-2-Copy" transform="translate(0.000000, 24.000000)" fill="#F2913C">
                    <path d="M0.975781291,669.911251 L670.2339,669.911251 L670.2339,0.195928224 L0.975781291,0.195928224 L0.975781291,669.911251 Z M631.401331,210.116692 L412.111528,210.116692 C406.262169,206.663457 400.249647,203.487787 393.927117,200.842756 L631.401331,58.5580478 L631.401331,210.116692 Z M336.68171,448.291939 C276.034374,448.291939 226.710485,398.92619 226.710485,338.253751 C226.710485,277.573147 276.034374,228.207398 336.68171,228.207398 C397.304572,228.207398 446.636619,277.573147 446.636619,338.253751 C446.636619,398.92619 397.304572,448.291939 336.68171,448.291939 L336.68171,448.291939 Z M337.45673,189.380955 C337.195671,189.380955 336.942769,189.348301 336.68171,189.348301 C328.08307,189.348301 319.721014,190.229978 311.530279,191.642294 L406.294801,39.0550259 L588.359181,39.0550259 L337.45673,189.380955 Z M249.561331,217.782384 C247.24443,219.464101 244.903054,221.121328 242.675892,222.933664 L242.675892,39.0550259 L360.576793,39.0550259 L249.561331,217.782384 Z M203.835165,271.507536 C202.676714,273.817856 201.501947,276.144504 200.449552,278.528297 L54.9661054,39.0550259 L203.835165,39.0550259 L203.835165,271.507536 Z M188.130817,333.045325 C188.07371,334.792352 187.869758,336.490397 187.869758,338.253751 C187.869758,343.364212 188.130817,348.409363 188.628461,353.389206 L39.8165086,259.841643 L39.8165086,88.9187588 L188.130817,333.045325 Z M206.788398,410.706375 C209.097141,414.837195 211.585362,418.84556 214.269378,422.715142 L39.8165086,422.715142 L39.8165086,305.737829 L206.788398,410.706375 Z M39.8165086,461.582404 L253.395639,461.582404 C257.898912,464.651946 262.630611,467.411268 267.484682,469.982826 L39.8165086,623.631372 L39.8165086,461.582404 Z M314.255086,485.289719 C321.581062,486.391815 329.02941,487.1592 336.68171,487.1592 L336.738817,487.1592 L259.236841,631.04399 L98.2611568,631.04399 L314.255086,485.289719 Z M385.352951,478.80776 C399.41752,473.917718 412.486801,466.978593 424.27526,458.349588 L424.27526,631.04399 L303.35586,631.04399 L385.352951,478.80776 Z M463.115987,416.363802 C465.620524,412.314619 467.945584,408.151144 470.050374,403.857051 L611.258975,631.04399 L463.115987,631.04399 L463.115987,416.363802 Z M484.661536,353.764735 C485.191813,348.662437 485.477347,343.486667 485.477347,338.253751 C485.477347,329.869655 484.612588,321.705979 483.274659,313.705577 L631.401331,406.395954 L631.401331,589.866408 L484.661536,353.764735 Z M457.609267,251.816749 C456.923987,250.853436 456.206074,249.922776 455.496319,248.983954 L631.401331,248.983954 L631.401331,360.573241 L457.609267,251.816749 Z" id="Fill-9"></path>
                </g>
                <text id="Rubize" font-family="Roboto-Medium, Roboto" font-size="349" font-weight="400" letter-spacing="17.0243893" fill="#857F7E">
                    <tspan x="847" y="324">Rubize</tspan>
                </text>
                <text id="foresight" font-family="Roboto-Regular, Roboto" font-size="250" font-weight="normal" letter-spacing="16.9491539" fill="#8F8F8F">
                    <tspan x="857" y="657">foresight</tspan>
                </text>
            </g>
        </g>
    </g>
</svg>