<?xml version="1.0" encoding="UTF-8" standalone="no"?>
<svg width="550px" height="350px" viewBox="0 0 550 350" version="1.1" xmlns="http://www.w3.org/2000/svg" xmlns:xlink="http://www.w3.org/1999/xlink">
    <!-- Generator: Sketch 40.3 (33839) - http://www.bohemiancoding.com/sketch -->
    <title>projects</title>
    <desc>Created with Sketch.</desc>
    <defs></defs>
    <g id="Page-1" stroke="none" stroke-width="1" fill="none" fill-rule="evenodd">
        <g id="projects" fill="#282828">
            <g id="shopping-and-retail-01-final" transform="translate(142.000000, 54.000000)">
                <path d="M8.34375,50.0625 L258.65625,50.0625 C263.245313,50.0625 267,46.3078125 267,41.71875 C267,39.215625 265.748438,36.7125 263.871094,35.2523437 L222.152344,1.87734375 C220.692188,0.62578125 218.814844,0 216.9375,0 L50.0625,0 C48.1851563,0 46.3078125,0.62578125 44.8476563,1.87734375 L3.12890625,35.2523437 C-0.4171875,38.1726562 -1.04296875,43.3875 1.87734375,46.9335938 C3.3375,48.8109375 5.840625,50.0625 8.34375,50.0625 L8.34375,50.0625 Z M50.0625,8.34375 L216.9375,8.34375 L258.65625,41.71875 L8.34375,41.71875 L50.0625,8.34375 L50.0625,8.34375 Z" id="Shape"></path>
                <path d="M254.484375,191.90625 L254.484375,58.40625 L246.140625,58.40625 L246.140625,191.90625 L20.859375,191.90625 L20.859375,58.40625 L12.515625,58.40625 L12.515625,191.90625 C5.63203125,191.90625 0,197.538281 0,204.421875 L0,254.484375 C0,261.367969 5.63203125,267 12.515625,267 L254.484375,267 C261.367969,267 267,261.367969 267,254.484375 L267,204.421875 C267,197.538281 261.367969,191.90625 254.484375,191.90625 L254.484375,191.90625 Z M258.65625,254.484375 C258.65625,256.778906 256.778906,258.65625 254.484375,258.65625 L12.515625,258.65625 C10.2210938,258.65625 8.34375,256.778906 8.34375,254.484375 L8.34375,204.421875 C8.34375,202.127344 10.2210938,200.25 12.515625,200.25 L254.484375,200.25 C256.778906,200.25 258.65625,202.127344 258.65625,204.421875 L258.65625,204.421875 L258.65625,254.484375 L258.65625,254.484375 Z" id="Shape"></path>
                <path d="M148.101562,158.53125 C159.574219,158.53125 168.960938,149.144531 168.960938,137.671875 C168.960938,126.199219 159.574219,116.8125 148.101562,116.8125 C136.628906,116.8125 127.242188,126.199219 127.242188,137.671875 C127.242188,149.144531 136.628906,158.53125 148.101562,158.53125 L148.101562,158.53125 Z M148.101562,125.15625 C154.985156,125.15625 160.617188,130.788281 160.617188,137.671875 C160.617188,144.555469 154.985156,150.1875 148.101562,150.1875 C141.217969,150.1875 135.585938,144.555469 135.585938,137.671875 C135.585938,130.788281 141.217969,125.15625 148.101562,125.15625 L148.101562,125.15625 Z" id="Shape"></path>
                <path d="M237.796875,183.5625 L237.796875,66.75 C237.796875,62.1609375 234.042187,58.40625 229.453125,58.40625 L37.546875,58.40625 C32.9578125,58.40625 29.203125,62.1609375 29.203125,66.75 L29.203125,183.5625 L37.546875,183.5625 L37.546875,95.953125 C46.725,102.836719 59.6578125,101.167969 66.5414062,91.9898438 C66.5414062,91.9898438 66.5414062,91.78125 66.75,91.78125 C73.6335937,100.959375 86.5664062,102.836719 95.7445312,96.1617188 C97.4132812,94.9101562 98.8734375,93.45 100.125,91.78125 C107.008594,100.959375 119.941406,102.836719 129.119531,96.1617188 C130.788281,94.9101562 132.248437,93.45 133.5,91.78125 C140.383594,100.959375 153.316406,102.836719 162.494531,96.1617188 C164.163281,94.9101562 165.623437,93.45 166.875,91.78125 C173.758594,100.959375 186.691406,102.836719 195.869531,96.1617188 C197.538281,94.9101562 198.998438,93.45 200.25,91.78125 C207.133594,100.959375 220.066406,102.836719 229.244531,96.1617188 C229.244531,96.1617188 229.453125,96.1617188 229.453125,95.953125 L229.453125,183.5625 L237.796875,183.5625 L237.796875,183.5625 Z M62.578125,79.265625 C62.578125,86.1492187 56.9460938,91.78125 50.0625,91.78125 C43.1789062,91.78125 37.546875,86.1492187 37.546875,79.265625 L37.546875,66.75 L62.578125,66.75 L62.578125,79.265625 L62.578125,79.265625 Z M95.953125,79.265625 C95.953125,86.1492187 90.3210937,91.78125 83.4375,91.78125 C76.5539063,91.78125 70.921875,86.1492187 70.921875,79.265625 L70.921875,66.75 L95.953125,66.75 L95.953125,79.265625 L95.953125,79.265625 Z M129.328125,79.265625 C129.328125,86.1492187 123.696094,91.78125 116.8125,91.78125 C109.928906,91.78125 104.296875,86.1492187 104.296875,79.265625 L104.296875,66.75 L129.328125,66.75 L129.328125,79.265625 L129.328125,79.265625 Z M162.703125,79.265625 C162.703125,86.1492187 157.071094,91.78125 150.1875,91.78125 C143.303906,91.78125 137.671875,86.1492187 137.671875,79.265625 L137.671875,66.75 L162.703125,66.75 L162.703125,79.265625 L162.703125,79.265625 Z M196.078125,79.265625 C196.078125,86.1492187 190.446094,91.78125 183.5625,91.78125 C176.678906,91.78125 171.046875,86.1492187 171.046875,79.265625 L171.046875,66.75 L196.078125,66.75 L196.078125,79.265625 L196.078125,79.265625 Z M216.9375,91.78125 C210.053906,91.78125 204.421875,86.1492187 204.421875,79.265625 L204.421875,66.75 L229.453125,66.75 L229.453125,79.265625 C229.453125,86.1492187 223.821094,91.78125 216.9375,91.78125 L216.9375,91.78125 Z" id="Shape"></path>
                <path d="M183.5625,183.5625 L183.5625,166.875 C183.5625,160.408594 179.599219,154.359375 173.758594,151.647656 C172.298438,154.150781 170.421094,156.653906 168.335156,158.739844 C172.298438,159.365625 175.21875,162.911719 175.21875,166.875 L175.21875,183.5625 L183.5625,183.5625 L183.5625,183.5625 Z" id="Shape"></path>
                <path d="M112.640625,166.875 L112.640625,183.5625 L120.984375,183.5625 L120.984375,166.875 C120.984375,162.911719 123.904688,159.365625 127.867969,158.739844 C125.782031,156.653906 123.904688,154.359375 122.444531,151.647656 C116.603906,154.359375 112.640625,160.408594 112.640625,166.875 L112.640625,166.875 Z" id="Shape"></path>
                <path d="M221.109375,183.5625 L221.109375,175.21875 C221.109375,170.629687 217.354688,166.875 212.765625,166.875 L200.25,166.875 C195.660937,166.875 191.90625,170.629687 191.90625,175.21875 L191.90625,183.5625 L200.25,183.5625 L200.25,175.21875 L212.765625,175.21875 L212.765625,183.5625 L221.109375,183.5625 L221.109375,183.5625 Z" id="Shape"></path>
                <path d="M104.296875,183.5625 L104.296875,125.15625 C104.296875,120.567187 100.542188,116.8125 95.953125,116.8125 L54.234375,116.8125 C49.6453125,116.8125 45.890625,120.567187 45.890625,125.15625 L45.890625,183.5625 L54.234375,183.5625 L54.234375,175.21875 L95.953125,175.21875 L95.953125,183.5625 L104.296875,183.5625 L104.296875,183.5625 Z M54.234375,125.15625 L95.953125,125.15625 L95.953125,133.5 L54.234375,133.5 L54.234375,125.15625 L54.234375,125.15625 Z M54.234375,141.84375 L95.953125,141.84375 L95.953125,150.1875 L54.234375,150.1875 L54.234375,141.84375 L54.234375,141.84375 Z M54.234375,166.875 L54.234375,158.53125 L95.953125,158.53125 L95.953125,166.875 L54.234375,166.875 L54.234375,166.875 Z" id="Shape"></path>
            </g>
        </g>
    </g>
</svg>