<?xml version="1.0" encoding="UTF-8" standalone="no"?>
<svg width="550px" height="350px" viewBox="0 0 550 350" version="1.1" xmlns="http://www.w3.org/2000/svg" xmlns:xlink="http://www.w3.org/1999/xlink">
    <!-- Generator: Sketch 40.3 (33839) - http://www.bohemiancoding.com/sketch -->
    <title>projects copy 6</title>
    <desc>Created with Sketch.</desc>
    <defs></defs>
    <g id="Page-1" stroke="none" stroke-width="1" fill="none" fill-rule="evenodd">
        <g id="projects-copy-6">
            <g id="shopping-and-retail-01-final" transform="translate(155.000000, 58.000000)">
                <rect id="Rectangle" fill="#F4F4F4" x="16.7586207" y="44.0533333" width="209.482759" height="123.768889"></rect>
                <rect id="Rectangle" fill="#857F7E" x="30.375" y="58.7377778" width="183.297414" height="108.56"></rect>
                <path d="M7.59375,45.6266667 L235.40625,45.6266667 C239.582813,45.6266667 243,42.2046667 243,38.0222222 C243,35.7408889 241.860938,33.4595556 240.152344,32.1287778 L202.183594,1.711 C200.854688,0.570333333 199.146094,0 197.4375,0 L45.5625,0 C43.8539063,0 42.1453125,0.570333333 40.8164063,1.711 L2.84765625,32.1287778 C-0.3796875,34.7903333 -0.94921875,39.5431111 1.70859375,42.775 C3.0375,44.486 5.315625,45.6266667 7.59375,45.6266667 L7.59375,45.6266667 Z" id="Shape" fill="#000000"></path>
                <polygon id="Path" fill="#F4F4F4" points="45.5625 7.60444444 197.4375 7.60444444 235.40625 38.0222222 7.59375 38.0222222"></polygon>
                <g id="Group" transform="translate(23.043103, 121.671111)">
                    <rect id="Rectangle" fill="#F4F4F4" x="5.94047921" y="7.34222222" width="81.7958291" height="53.2311111"></rect>
                    <rect id="Rectangle" fill="#F4F4F4" x="15.1143369" y="66.5388889" width="10.4754197" height="5.04777778"></rect>
                    <rect id="Rectangle" fill="#F4F4F4" x="67.630071" y="66.5388889" width="10.4754197" height="5.04777778"></rect>
                    <path d="M87.450844,62.1372643 L5.76899293,62.1372643 C4.90244938,62.1372643 4.20079306,61.4278174 4.20079306,60.5528128 L4.20079306,7.76826879 C4.20079306,6.89325475 4.90244938,6.18381723 5.76899293,6.18381723 C6.63553648,6.18381723 7.3371928,6.89325475 7.3371928,7.76826879 L7.3371928,58.9683612 L85.8826534,58.9683612 L85.8826534,7.76826879 C85.8826534,6.89325475 86.5843098,6.18381723 87.4508533,6.18381723 C88.3173969,6.18381723 89.0190532,6.89325475 89.0190532,7.76826879 L89.0190532,60.5528034 C89.0190439,61.4278174 88.3173782,62.1372643 87.450844,62.1372643 L87.450844,62.1372643 Z" id="Shape" fill="#000000"></path>
                    <path d="M46.6099138,52.2568641 C36.7134172,52.2568641 28.6635775,44.126492 28.6635775,34.1332475 C28.6635775,24.1409443 36.7134172,16.0105627 46.6099138,16.0105627 C56.5064103,16.0105627 64.5562501,24.1409349 64.5562501,34.1332475 C64.5562501,44.126492 56.5064103,52.2568641 46.6099138,52.2568641 L46.6099138,52.2568641 Z" id="Shape" fill="#000000"></path>
                    <path d="M31.7999679,34.1332475 C31.7999679,42.3792408 38.4446586,49.087961 46.6099138,49.087961 C54.775169,49.087961 61.4198597,42.3792408 61.4198597,34.1332475 C61.4198597,25.8872542 54.775169,19.1794658 46.6099138,19.1794658 C38.4446586,19.1794658 31.7999679,25.8872542 31.7999679,34.1332475 Z" id="Path" fill="#F2913C"></path>
                    <path d="M91.6516277,9.35272034 L1.56819987,9.35272034 C0.70165632,9.35272034 0,8.64328283 0,7.76826879 L0,1.80784337 C0,0.932829333 0.70165632,0.223391818 1.56819987,0.223391818 L91.6516277,0.223391818 C92.5181713,0.223391818 93.2198276,0.932838746 93.2198276,1.80784337 L93.2198276,7.76826879 C93.2198276,8.64328283 92.5181713,9.35272034 91.6516277,9.35272034 L91.6516277,9.35272034 Z" id="Shape" fill="#000000"></path>
                    <polygon id="Path" fill="#F4F4F4" points="3.13639974 6.18381723 90.0834372 6.18381723 90.0834372 3.39229493 3.13639974 3.39229493"></polygon>
                    <path d="M46.6099138,44.6315239 C45.7433702,44.6315239 45.0417139,43.922077 45.0417139,43.0470724 L45.0417139,25.2194414 C45.0417139,24.3444274 45.7433702,23.6349899 46.6099138,23.6349899 C47.4764573,23.6349899 48.1781137,24.3444274 48.1781137,25.2194414 L48.1781137,43.0470724 C48.1781137,43.922077 47.4764573,44.6315239 46.6099138,44.6315239 L46.6099138,44.6315239 Z" id="Shape" fill="#FFFFFF"></path>
                    <path d="M38.9539558,40.1750774 C38.4116867,40.1750774 37.8840625,39.8901898 37.5927785,39.3814679 C37.160425,38.6239294 37.4187371,37.6554997 38.1680287,37.217988 L53.4836083,28.3041725 C54.2365635,27.8685152 55.1928684,28.1275074 55.6270584,28.8859683 C56.059412,29.6435068 55.8010998,30.6119365 55.0518082,31.0494483 L39.7362286,39.9632637 C39.4889071,40.1066253 39.219595,40.1750774 38.9539558,40.1750774 L38.9539558,40.1750774 Z" id="Shape" fill="#FFFFFF"></path>
                    <path d="M53.4836083,39.9632637 L38.1680287,31.0494483 C37.4187371,30.6119459 37.160425,29.6435068 37.5927785,28.8859683 C38.0269592,28.1275074 38.9832734,27.8685152 39.7362286,28.3041725 L55.0518082,37.217988 C55.8010998,37.6554903 56.059412,38.6239294 55.6270584,39.3814679 C55.3357651,39.8901898 54.8081409,40.1750774 54.2658718,40.1750774 C54.0002326,40.1750774 53.7309205,40.1066253 53.4836083,39.9632637 Z" id="Shape" fill="#FFFFFF"></path>
                    <path d="M26.2966235,55.0493183 L11.6185837,55.0493183 C10.7520402,55.0493183 10.0503838,54.3398714 10.0503838,53.4648668 C10.0503838,52.5898621 10.7520402,51.8804152 11.6185837,51.8804152 L26.2966235,51.8804152 C27.1631671,51.8804152 27.8648234,52.5898621 27.8648234,53.4648668 C27.8648234,54.3398714 27.1631671,55.0493183 26.2966235,55.0493183 L26.2966235,55.0493183 Z" id="Shape" fill="#9B9B9B"></path>
                    <path d="M18.9576036,49.2498288 L11.6185837,49.2498288 C10.7520402,49.2498288 10.0503838,48.5403912 10.0503838,47.6653772 C10.0503838,46.7903632 10.7520402,46.0809257 11.6185837,46.0809257 L18.9576036,46.0809257 C19.8241379,46.0809257 20.5258035,46.7903632 20.5258035,47.6653772 C20.5258035,48.5403912 19.8241472,49.2498288 18.9576036,49.2498288 L18.9576036,49.2498288 Z" id="Shape" fill="#9B9B9B"></path>
                    <path d="M81.6012345,55.0493183 L66.9232041,55.0493183 C66.0566605,55.0493183 65.3550042,54.3398714 65.3550042,53.4648668 C65.3550042,52.5898621 66.0566605,51.8804152 66.9232041,51.8804152 L81.6012345,51.8804152 C82.4677781,51.8804152 83.1694344,52.5898621 83.1694344,53.4648668 C83.1694344,54.3398714 82.4677781,55.0493183 81.6012345,55.0493183 L81.6012345,55.0493183 Z" id="Shape" fill="#9B9B9B"></path>
                    <path d="M81.6012345,49.2498288 L74.262224,49.2498288 C73.3956804,49.2498288 72.6940241,48.5403912 72.6940241,47.6653772 C72.6940241,46.7903632 73.3956804,46.0809257 74.262224,46.0809257 L81.6012345,46.0809257 C82.4677781,46.0809257 83.1694344,46.7903632 83.1694344,47.6653772 C83.1694344,48.5403912 82.4677781,49.2498288 81.6012345,49.2498288 L81.6012345,49.2498288 Z" id="Shape" fill="#9B9B9B"></path>
                    <path d="M82.876314,67.8821673 L10.2903783,67.8821673 C6.93231112,67.8821673 4.20078373,65.0998981 4.20078373,61.6803239 L4.20078373,60.5528034 C4.20078373,59.6777987 4.90244005,58.9683518 5.76898361,58.9683518 L87.4508347,58.9683518 C88.3173782,58.9683518 89.0190345,59.6777987 89.0190345,60.5528034 L89.0190345,61.6803239 C89.0190439,65.1581746 86.3204883,67.8821673 82.876314,67.8821673 L82.876314,67.8821673 Z" id="Shape" fill="#000000"></path>
                    <path d="M7.37016465,62.1372643 C7.57717792,63.6135028 8.78630434,64.7132736 10.2903876,64.7132736 L82.8763233,64.7132736 C84.4078785,64.7132736 85.637159,63.6135028 85.8496723,62.1372643 L7.37016465,62.1372643 L7.37016465,62.1372643 Z" id="Path" fill="#FFFFFF"></path>
                    <path d="M25.1259689,73.198821 L15.7131248,73.198821 C14.8465906,73.198821 14.1449249,72.4893835 14.1449249,71.6143694 L14.1449249,66.2977251 C14.1449249,65.4227111 14.8465813,64.7132736 15.7131248,64.7132736 C16.5796684,64.7132736 17.2813247,65.4227205 17.2813247,66.2977251 L17.2813247,70.0299273 L23.5577784,70.0299273 L23.5577784,66.2977251 C23.5577784,65.4227111 24.2594347,64.7132736 25.1259783,64.7132736 C25.9925218,64.7132736 26.6941781,65.4227205 26.6941781,66.2977251 L26.6941781,71.6143788 C26.6941688,72.4893835 25.9925125,73.198821 25.1259689,73.198821 L25.1259689,73.198821 Z" id="Shape" fill="#000000"></path>
                    <path d="M77.4535768,73.198821 L68.0938586,73.198821 C67.2273151,73.198821 66.5256588,72.4893835 66.5256588,71.6143694 L66.5256588,66.2977251 C66.5256588,65.4227111 67.2273151,64.7132736 68.0938586,64.7132736 C68.9604022,64.7132736 69.6620585,65.4227205 69.6620585,66.2977251 L69.6620585,70.0299273 L75.8853769,70.0299273 L75.8853769,66.2977251 C75.8853769,65.4227111 76.5870332,64.7132736 77.4535768,64.7132736 C78.3201203,64.7132736 79.0217767,65.4227205 79.0217767,66.2977251 L79.0217767,71.6143788 C79.0217767,72.4893835 78.3201203,73.198821 77.4535768,73.198821 L77.4535768,73.198821 Z" id="Shape" fill="#000000"></path>
                </g>
                <rect id="Rectangle" fill="#F4F4F4" x="16.7586207" y="53.7555556" width="13.8782328" height="114.066667"></rect>
                <polygon id="Polygon" fill="#F4F4F4" points="163.396552 131.111111 190.292594 145.968781 190.292594 170.008997 136.500509 170.008997 136.500509 145.968781"></polygon>
                <path d="M231.609375,166.773333 L231.609375,45.1022222 L224.015625,45.1022222 L224.015625,166.773333 L18.984375,166.773333 L18.984375,45.1022222 L11.390625,45.1022222 L11.390625,166.773333 C5.12578125,166.773333 0,171.906333 0,178.18 L0,223.806667 C0,230.080333 5.12578125,235.213333 11.390625,235.213333 L231.609375,235.213333 C237.874219,235.213333 243,230.080333 243,223.806667 L243,178.18 C243,171.906333 237.874219,166.773333 231.609375,166.773333 L231.609375,166.773333 Z" id="Shape" fill="#000000"></path>
                <path d="M235.40625,223.806667 C235.40625,225.897889 233.697656,227.608889 231.609375,227.608889 L11.390625,227.608889 C9.30234375,227.608889 7.59375,225.897889 7.59375,223.806667 L7.59375,178.18 C7.59375,176.088778 9.30234375,174.377778 11.390625,174.377778 L231.609375,174.377778 C233.697656,174.377778 235.40625,176.088778 235.40625,178.18 L235.40625,178.18 L235.40625,223.806667 L235.40625,223.806667 Z" id="Path" fill="#F4F4F4"></path>
                <path d="M164.116649,144.484444 C174.558055,144.484444 183.101024,135.929444 183.101024,125.473333 C183.101024,115.017222 174.558055,106.462222 164.116649,106.462222 C153.675242,106.462222 145.132274,115.017222 145.132274,125.473333 C145.132274,135.929444 153.675242,144.484444 164.116649,144.484444 L164.116649,144.484444 Z" id="Shape" fill="#000000"></path>
                <path d="M164.116649,114.066667 C170.381492,114.066667 175.507274,119.199667 175.507274,125.473333 C175.507274,131.747 170.381492,136.88 164.116649,136.88 C157.851805,136.88 152.726024,131.747 152.726024,125.473333 C152.726024,119.199667 157.851805,114.066667 164.116649,114.066667 L164.116649,114.066667 Z" id="Path" fill="#F4F4F4"></path>
                <path d="M216.421875,167.297778 L216.421875,60.8355556 C216.421875,56.6531111 213.004687,53.2311111 208.828125,53.2311111 L34.171875,53.2311111 C29.9953125,53.2311111 26.578125,56.6531111 26.578125,60.8355556 L26.578125,167.297778 L34.171875,167.297778 L34.171875,87.4511111 C42.525,93.7247778 54.2953125,92.2038889 60.5601562,83.839 C60.5601562,83.839 60.5601562,83.6488889 60.75,83.6488889 C67.0148437,92.0137778 78.7851562,93.7247778 87.1382812,87.6412222 C88.6570312,86.5005556 89.9859375,85.1697778 91.125,83.6488889 C97.3898437,92.0137778 109.160156,93.7247778 117.513281,87.6412222 C119.032031,86.5005556 120.360937,85.1697778 121.5,83.6488889 C127.764844,92.0137778 139.535156,93.7247778 147.888281,87.6412222 C149.407031,86.5005556 150.735937,85.1697778 151.875,83.6488889 C158.139844,92.0137778 169.910156,93.7247778 178.263281,87.6412222 C179.782031,86.5005556 181.110937,85.1697778 182.25,83.6488889 C188.514844,92.0137778 200.285156,93.7247778 208.638281,87.6412222 C208.638281,87.6412222 208.828125,87.6412222 208.828125,87.4511111 L208.828125,167.297778 L216.421875,167.297778 L216.421875,167.297778 Z" id="Shape" fill="#000000"></path>
                <path d="M196.390086,152.088889 C196.390086,146.195444 192.783055,140.682222 187.46743,138.210778 C186.936414,137.963888 180.752491,133.965001 180.316318,134.606569 C179.651875,135.5839 176.138081,139.717227 176.138081,139.717227 L182.531492,144.674556 C182.531492,144.674556 188.796336,148.476778 188.796336,152.088889 L188.796336,167.297778 L196.390086,167.297778 L196.390086,152.088889 Z" id="Shape" fill="#000000"></path>
                <path d="M131.843211,167.297778 L139.436961,167.297778 L139.436961,152.088889 C139.436961,148.476778 145.701805,144.674556 145.701805,144.674556 L152.794293,140.744261 L148.10265,134.824109 C148.10265,134.824109 143.962352,136.595682 140.765867,138.210778 C137.569383,139.825874 131.843211,146.195444 131.843211,152.088889 L131.843211,167.297778 Z" id="Shape" fill="#000000"></path>
                <path d="M197.4375,83.6488889 C191.172656,83.6488889 186.046875,78.5158889 186.046875,72.2422222 L186.046875,60.8355556 L208.828125,60.8355556 L208.828125,72.2422222 C208.828125,78.5158889 203.702344,83.6488889 197.4375,83.6488889 L197.4375,83.6488889 Z" id="Path" fill="#F2913C"></path>
                <path d="M178.453125,72.2422222 C178.453125,78.5158889 173.327344,83.6488889 167.0625,83.6488889 C160.797656,83.6488889 155.671875,78.5158889 155.671875,72.2422222 L155.671875,60.8355556 L178.453125,60.8355556 L178.453125,72.2422222 L178.453125,72.2422222 Z" id="Path" fill="#F4F4F4"></path>
                <path d="M148.078125,72.2422222 C148.078125,78.5158889 142.952344,83.6488889 136.6875,83.6488889 C130.422656,83.6488889 125.296875,78.5158889 125.296875,72.2422222 L125.296875,60.8355556 L148.078125,60.8355556 L148.078125,72.2422222 L148.078125,72.2422222 Z" id="Path" fill="#F2913C"></path>
                <path d="M117.703125,72.2422222 C117.703125,78.5158889 112.577344,83.6488889 106.3125,83.6488889 C100.047656,83.6488889 94.921875,78.5158889 94.921875,72.2422222 L94.921875,60.8355556 L117.703125,60.8355556 L117.703125,72.2422222 L117.703125,72.2422222 Z" id="Path" fill="#F4F4F4"></path>
                <path d="M87.328125,72.2422222 C87.328125,78.5158889 82.2023437,83.6488889 75.9375,83.6488889 C69.6726563,83.6488889 64.546875,78.5158889 64.546875,72.2422222 L64.546875,60.8355556 L87.328125,60.8355556 L87.328125,72.2422222 L87.328125,72.2422222 Z" id="Path" fill="#F2913C"></path>
                <path d="M56.953125,72.2422222 C56.953125,78.5158889 51.8273437,83.6488889 45.5625,83.6488889 C39.2976562,83.6488889 34.171875,78.5158889 34.171875,72.2422222 L34.171875,60.8355556 L56.953125,60.8355556 L56.953125,72.2422222 L56.953125,72.2422222 Z" id="Path" fill="#F4F4F4"></path>
            </g>
        </g>
    </g>
</svg>