<?xml version="1.0" encoding="UTF-8" standalone="no"?>
<svg width="550px" height="350px" viewBox="0 0 550 350" version="1.1" xmlns="http://www.w3.org/2000/svg" xmlns:xlink="http://www.w3.org/1999/xlink">
    <!-- Generator: Sketch 40.3 (33839) - http://www.bohemiancoding.com/sketch -->
    <title>Solar system large</title>
    <desc>Created with Sketch.</desc>
    <defs></defs>
    <g id="Page-1" stroke="none" stroke-width="1" fill="none" fill-rule="evenodd">
        <g id="Solar-system-large">
            <g id="Group-2" transform="translate(145.000000, 19.000000)">
                <g id="Group" transform="translate(95.912960, 100.513041) rotate(-53.000000) translate(-95.912960, -100.513041) translate(12.412960, 44.513041)">
                    <path d="M7.4087624,0.322711776 C3.75508959,0.322711776 0.76863241,3.31829836 0.76863241,6.9771934 L0.76863241,104.60122 C0.76863241,108.26279 3.75508959,111.258377 7.4087624,111.258377 L160.171785,111.258377 C163.825458,111.258377 166.811915,108.26279 166.811915,104.60122 L166.811915,6.9771934 C166.811915,3.31562373 163.825458,0.322711776 160.171785,0.322711776 L7.4087624,0.322711776 L7.4087624,0.322711776 Z" id="Shape" fill="#282828"></path>
                    <path d="M157.961967,95.7294699 C157.961967,99.3910395 154.972841,102.383951 151.319168,102.383951 L16.2667172,102.383951 C12.6130443,102.383951 9.6239183,99.3910395 9.6239183,95.7294699 L9.6239183,15.8542933 C9.6239183,12.190049 12.6130443,9.19713703 16.2667172,9.19713703 L151.319168,9.19713703 C154.972841,9.19713703 157.961967,12.1927236 157.961967,15.8542933 L157.961967,95.7294699 L157.961967,95.7294699 Z" id="Path" fill="#FFFFFF"></path>
                    <rect id="Rectangle-path" fill="#282828" x="64.9761273" y="18.0715623" width="11.0677729" height="37.7203193"></rect>
                    <rect id="Rectangle-path" fill="#282828" x="45.0477307" y="18.0715623" width="11.0677729" height="37.7203193"></rect>
                    <rect id="Rectangle-path" fill="#282828" x="31.762133" y="18.0715623" width="11.0704418" height="37.7203193"></rect>
                    <rect id="Rectangle-path" fill="#282828" x="18.4792042" y="18.0715623" width="11.0704418" height="37.7203193"></rect>
                    <rect id="Rectangle-path" fill="#282828" x="111.467713" y="18.0715623" width="11.0677729" height="37.7203193"></rect>
                    <rect id="Rectangle-path" fill="#282828" x="124.750641" y="18.0715623" width="11.0677729" height="37.7203193"></rect>
                    <rect id="Rectangle-path" fill="#282828" x="18.4792042" y="58.0118252" width="11.0704418" height="35.497701"></rect>
                    <rect id="Rectangle-path" fill="#282828" x="78.2563873" y="18.0715623" width="11.0677729" height="37.7203193"></rect>
                    <rect id="Rectangle-path" fill="#282828" x="91.5393161" y="18.0715623" width="11.0704418" height="37.7203193"></rect>
                    <rect id="Rectangle-path" fill="#282828" x="124.750641" y="58.0118252" width="11.0677729" height="35.497701"></rect>
                    <rect id="Rectangle-path" fill="#282828" x="138.03357" y="58.0118252" width="11.0677729" height="35.497701"></rect>
                    <rect id="Rectangle-path" fill="#282828" x="111.467713" y="58.0118252" width="11.0677729" height="35.497701"></rect>
                    <rect id="Rectangle-path" fill="#282828" x="138.03357" y="18.0715623" width="11.0677729" height="37.7203193"></rect>
                    <rect id="Rectangle-path" fill="#282828" x="64.9761273" y="58.0118252" width="11.0677729" height="35.497701"></rect>
                    <rect id="Rectangle-path" fill="#282828" x="31.762133" y="58.0118252" width="11.0704418" height="35.497701"></rect>
                    <rect id="Rectangle-path" fill="#282828" x="91.5393161" y="58.0118252" width="11.0704418" height="35.497701"></rect>
                    <rect id="Rectangle-path" fill="#282828" x="45.0477307" y="58.0118252" width="11.0677729" height="35.497701"></rect>
                    <rect id="Rectangle-path" fill="#282828" x="78.2563873" y="58.0118252" width="11.0677729" height="35.497701"></rect>
                </g>
                <g id="Group" transform="translate(184.054023, 182.318458)" fill="#282828">
                    <path d="M34.6401892,39.9560655 C33.056536,37.6637659 29.6252874,38.7424951 29.6252874,41.5741593 L29.6252874,63.8229489 L22.4988481,63.8229489 C19.8594261,63.8229489 18.2757729,66.9242953 19.727455,69.0817537 L40.0510042,99.6906945 C41.6346574,101.982994 45.065906,100.904265 45.065906,98.0726007 L45.065906,75.9586523 L52.1923453,75.9586523 C54.8317673,75.9586523 56.4154205,72.8573059 54.9637384,70.6998475 L34.6401892,39.9560655 L34.6401892,39.9560655 Z" id="Shape"></path>
                    <path d="M64.2017153,11.7742653 L51.5324898,11.7742653 L51.5324898,2.33538487 C51.5324898,0.986973381 50.476721,0.0430853376 49.2889811,0.0430853376 L25.6661545,0.0430853376 C24.3464435,0.0430853376 23.4226458,1.12181453 23.4226458,2.33538487 L23.4226458,11.7742653 L10.7534203,11.7742653 C4.81472087,11.7742653 0.0637613174,16.6285467 0.0637613174,22.6963984 L0.0637613174,117.085203 C0.0637613174,123.153054 4.94669197,128.007336 10.7534203,128.007336 L64.2017153,128.007336 C70.1404147,128.007336 74.8913743,123.153054 74.8913743,117.085203 L74.8913743,22.6963984 C74.8913743,16.6285467 70.1404147,11.7742653 64.2017153,11.7742653 L64.2017153,11.7742653 Z M64.8615708,117.085203 C64.8615708,117.489726 64.5976286,117.759409 64.2017153,117.759409 L10.6214492,117.759409 C10.2255359,117.759409 9.96159372,117.489726 9.96159372,117.085203 L9.96159372,22.6963984 C9.96159372,22.2918749 10.2255359,22.0221926 10.6214492,22.0221926 L64.0697442,22.0221926 C64.4656575,22.0221926 64.7295997,22.2918749 64.7295997,22.6963984 L64.7295997,117.085203 L64.8615708,117.085203 Z" id="Shape"></path>
                </g>
                <path d="M54.0032544,166.769439 L54.0032544,253.629479" id="Line" stroke="#282828" stroke-width="5" stroke-linecap="square"></path>
                <path d="M182.519797,253.629479 L54.0032544,253.629479" id="Line" stroke="#282828" stroke-width="5" stroke-linecap="square"></path>
            </g>
        </g>
    </g>
</svg>