<?xml version="1.0" encoding="UTF-8" standalone="no"?>
<svg width="550px" height="350px" viewBox="0 0 550 350" version="1.1" xmlns="http://www.w3.org/2000/svg" xmlns:xlink="http://www.w3.org/1999/xlink">
    <!-- Generator: Sketch 40.3 (33839) - http://www.bohemiancoding.com/sketch -->
    <title>projects copy 2</title>
    <desc>Created with Sketch.</desc>
    <defs>
        <rect id="path-1" x="1.42108547e-13" y="0.123922132" width="187.370264" height="117.97387" rx="2"></rect>
        <mask id="mask-2" maskContentUnits="userSpaceOnUse" maskUnits="objectBoundingBox" x="0" y="0" width="187.370264" height="117.97387" fill="white">
            <use xlink:href="#path-1"></use>
        </mask>
    </defs>
    <g id="Page-1" stroke="none" stroke-width="1" fill="none" fill-rule="evenodd">
        <g id="projects-copy-2">
            <g id="Group" transform="translate(298.000000, 150.000000)">
                <path d="M20.6352238,0.0534331749 C18.4832439,0.0534330528 16.4194041,0.908307163 14.8977293,2.42999151 C13.3760544,3.95167587 12.5211932,6.01552093 12.5212067,8.16750087 L0.350180757,8.16750087 L0.350180757,12.2244581 C2.59081868,12.2244581 4.40721461,14.040854 4.40721461,16.2814919 C4.40721461,18.5221298 2.59081868,20.3385257 0.350180757,20.3385257 L0.350180757,24.3954829 L12.5212067,24.3954829 L12.5212067,89.3075645 L0.350180757,89.3075645 L0.350180757,93.364675 C2.58104236,93.37839 4.38227302,95.1907284 4.38227302,97.4216322 C4.38227302,99.6525359 2.58104236,101.464874 0.350180757,101.478589 L0.350180757,105.5357 L12.5212067,105.5357 C12.5212632,110.016908 16.1540159,113.649614 20.6352238,113.649614 L93.6613731,113.649614 C98.1425809,113.649614 101.775334,110.016908 101.77539,105.5357 L113.946415,105.5357 L113.946415,101.478589 C111.715553,101.464874 109.914323,99.6525359 109.914323,97.4216322 C109.914323,95.1907284 111.715553,93.37839 113.946415,93.364675 L113.946415,89.3075645 L101.77539,89.3075645 L101.77539,24.3954829 L113.946415,24.3954829 L113.946415,20.3385257 C111.705777,20.3385257 109.889381,18.5221298 109.889381,16.2814919 C109.889381,14.040854 111.705777,12.2244581 113.946415,12.2244581 L113.946415,8.16750087 L101.77539,8.16750087 C101.775404,6.01552093 100.920542,3.95167587 99.3988676,2.42999151 C97.8771927,0.908307163 95.813353,0.0534330528 93.6613731,0.0534331749 L20.6352238,0.0534331749 Z" id="Shape" fill="#000000"></path>
                <path d="M101.77539,93.364675 L106.917972,93.364675 C105.468582,95.8751345 105.468582,98.9681299 106.917972,101.478589 L101.77539,101.478589 L101.77539,93.364675 Z" id="Path" fill="#FFFFFF"></path>
                <path d="M20.6352238,4.11039035 L93.6613731,4.11039035 C94.7373761,4.1103906 95.7693074,4.5378383 96.5301468,5.29869701 C97.2909863,6.05955573 97.7184078,7.09149778 97.7183808,8.16750087 L97.7183808,105.5357 C97.7183524,107.776303 95.9019766,109.592657 93.6613731,109.592657 L20.6352238,109.592657 C18.3946196,109.592657 16.5782429,107.776304 16.5782145,105.5357 L16.5782145,8.16750087 C16.5781875,7.09149752 17.0056093,6.05955523 17.766449,5.29869647 C18.5272888,4.53783771 19.5592204,4.11039019 20.6352238,4.11039035 L20.6352238,4.11039035 Z" id="Path" fill="#FFFFFF"></path>
                <polygon id="Shape" fill="#000000" points="24.6922316 12.2244581 24.6922316 32.5095506 89.6043653 32.5095506 89.6043653 12.2244581"></polygon>
                <polygon id="Path" fill="#F2913C" points="28.7492394 16.2814152 85.547356 16.2814152 85.547356 28.4524401 28.7492394 28.4524401"></polygon>
                <path d="M67.3533612,66.3596075 L60.4898421,64.6348147 L65.962416,51.3369845 C66.2751494,50.5780827 66.0113942,49.7042638 65.3303728,49.244596 C64.6526396,48.7840628 63.7416112,48.8667892 63.1535272,49.4398164 L45.5492533,66.608825 C45.1435826,67.0042847 44.9577079,67.5738505 45.0506452,68.1333784 C45.1435826,68.6929063 45.5052941,69.1710923 46.0191321,69.4128679 L52.5633412,72.5024726 L47.1262462,84.0171862 C46.773015,84.7650118 46.9995607,85.6582142 47.6653521,86.1492073 C48.3290668,86.6386427 49.2492677,86.5915683 49.860889,86.0316943 L68.1006675,69.3138732 C68.5705463,68.8838 68.7649014,68.2304694 68.6093135,67.6136561 C68.4518219,66.9959774 67.9701745,66.51433 67.3533612,66.3596075 L67.3533612,66.3596075 Z" id="Shape" fill="#000000"></path>
                <path d="M54.0200521,77.5245513 L56.4319236,72.4145542 C56.6280094,71.9997109 56.6517196,71.5239478 56.4961318,71.0919708 C56.340717,70.6593015 56.021234,70.3069357 55.6055254,70.11085 L49.750991,67.3466126 L59.5739678,57.7654114 L56.5283224,65.1680363 C56.3372556,65.6320308 56.3576776,66.1567721 56.5840502,66.6055367 C56.8104227,67.0543012 57.2195548,67.3820915 57.7062212,67.5046234 L63.3918414,68.9336435 L54.0200521,77.5245513 L54.0200521,77.5245513 Z" id="Path" fill="#F2913C"></path>
                <path d="M7.37862278,93.364675 L12.5212067,93.364675 L12.5212067,101.478589 L7.37862278,101.478589 C8.82801289,98.9681299 8.82801289,95.8751345 7.37862278,93.364675 L7.37862278,93.364675 Z" id="Path" fill="#FFFFFF"></path>
                <path d="M101.77539,12.2244581 L106.917972,12.2244581 C105.468523,14.7349565 105.468523,17.8280273 106.917972,20.3385257 L101.77539,20.3385257 L101.77539,12.2244581 Z" id="Path" fill="#FFFFFF"></path>
                <path d="M7.37862278,12.2244581 L12.5212067,12.2244581 L12.5212067,20.3385257 L7.37862278,20.3385257 C8.8280719,17.8280273 8.8280719,14.7349565 7.37862278,12.2244581 L7.37862278,12.2244581 Z" id="Path" fill="#FFFFFF"></path>
            </g>
            <g id="Group" transform="translate(190.574769, 149.978213) rotate(-49.000000) translate(-190.574769, -149.978213) translate(96.574769, 90.478213)">
                <use id="Rectangle" stroke="#000000" mask="url(#mask-2)" stroke-width="10" fill="#FFFFFF" xlink:href="#path-1"></use>
                <rect id="Rectangle-path" fill="#4A4A4A" x="71.2307168" y="14.6134608" width="13.0830326" height="44.4699271"></rect>
                <rect id="Rectangle-path" fill="#4A4A4A" x="47.6736866" y="14.6134608" width="13.0830326" height="44.4699271"></rect>
                <rect id="Rectangle-path" fill="#4A4A4A" x="31.9689998" y="14.6134608" width="13.0861874" height="44.4699271"></rect>
                <rect id="Rectangle-path" fill="#4A4A4A" x="16.2674678" y="14.6134608" width="13.0861874" height="44.4699271"></rect>
                <rect id="Rectangle-path" fill="#4A4A4A" x="126.187656" y="14.6134608" width="13.0830326" height="44.4699271"></rect>
                <rect id="Rectangle-path" fill="#4A4A4A" x="141.889188" y="14.6134608" width="13.0830326" height="44.4699271"></rect>
                <rect id="Rectangle-path" fill="#4A4A4A" x="16.2674678" y="61.7005644" width="13.0861874" height="41.8495974"></rect>
                <rect id="Rectangle-path" fill="#4A4A4A" x="86.9290939" y="14.6134608" width="13.0830326" height="44.4699271"></rect>
                <rect id="Rectangle-path" fill="#4A4A4A" x="102.630626" y="14.6134608" width="13.0861874" height="44.4699271"></rect>
                <rect id="Rectangle-path" fill="#4A4A4A" x="141.889188" y="61.7005644" width="13.0830326" height="41.8495974"></rect>
                <rect id="Rectangle-path" fill="#4A4A4A" x="157.59072" y="61.7005644" width="13.0830326" height="41.8495974"></rect>
                <rect id="Rectangle-path" fill="#4A4A4A" x="126.187656" y="61.7005644" width="13.0830326" height="41.8495974"></rect>
                <rect id="Rectangle-path" fill="#4A4A4A" x="157.59072" y="14.6134608" width="13.0830326" height="44.4699271"></rect>
                <rect id="Rectangle-path" fill="#4A4A4A" x="71.2307168" y="61.7005644" width="13.0830326" height="41.8495974"></rect>
                <rect id="Rectangle-path" fill="#4A4A4A" x="31.9689998" y="61.7005644" width="13.0861874" height="41.8495974"></rect>
                <rect id="Rectangle-path" fill="#4A4A4A" x="102.630626" y="61.7005644" width="13.0861874" height="41.8495974"></rect>
                <rect id="Rectangle-path" fill="#4A4A4A" x="47.6736866" y="61.7005644" width="13.0830326" height="41.8495974"></rect>
                <rect id="Rectangle-path" fill="#4A4A4A" x="86.9290939" y="61.7005644" width="13.0830326" height="41.8495974"></rect>
            </g>
            <path d="M233.075137,188.312523 C239.056654,197.252454 241.602338,208.494804 231.680406,230.528501 C221.758475,252.562198 222.174661,268.683614 235.91181,285.527975 C249.648958,302.372336 303.269699,307.791646 331.963159,292.22267 C360.656619,276.653694 360.656619,263.5 360.656619,263.5" id="Line" stroke="#000000" stroke-width="4" stroke-linecap="square"></path>
        </g>
    </g>
</svg>