<?xml version="1.0" encoding="UTF-8" standalone="no"?>
<svg width="550px" height="350px" viewBox="0 0 550 350" version="1.1" xmlns="http://www.w3.org/2000/svg" xmlns:xlink="http://www.w3.org/1999/xlink">
    <!-- Generator: Sketch 40.3 (33839) - http://www.bohemiancoding.com/sketch -->
    <title>Team large</title>
    <desc>Created with Sketch.</desc>
    <defs></defs>
    <g id="Page-1" stroke="none" stroke-width="1" fill="none" fill-rule="evenodd">
        <g id="Team-large" fill="#282828">
            <g id="Group" transform="translate(142.000000, 62.000000)">
                <path d="M265.317535,185.427472 L265.396103,185.408556 C265.396103,185.408556 265.594093,199.189347 263.384768,204.782375 C263.384768,204.782375 229.553491,226.820292 172.890423,226.820292 L172.92185,225.537111 L172.811855,226.820292 C116.148787,226.820292 82.3175098,204.782375 82.3175098,204.782375 C80.1050417,199.1925 80.3061751,185.408556 80.3061751,185.408556 C79.6084934,175.489917 80.4475971,155.454014 97.7639313,151.040125 C120.997989,145.119208 140.272232,136.089653 140.272232,136.089653 C144.081197,130.830819 144.760022,119.818167 144.760022,119.818167 C137.490933,111.977208 134.26337,102.156306 132.908861,93.8518889 C132.424884,94.2081528 131.87491,94.4446111 131.262081,94.4288472 C129.077897,94.3815556 126.152034,91.1783333 122.999896,79.0369861 C119.030652,63.7523194 122.754764,60.7351111 126.359453,60.7634861 C127.189129,60.7697917 127.324265,60.7540278 128.047088,60.9715694 L128.056517,60.637375 C128.056517,60.637375 117.374444,24.91325 143.069244,9.20295833 C143.069244,9.20295833 138.556312,5.53627778 138.905153,0.255375 C138.905153,0.255375 150.684031,1.59530556 161.972647,1.617375 C167.10155,1.62998611 172.13303,1.36515278 175.907425,0.586416667 C177.415926,0.274291667 178.943283,0.148180556 180.458069,0.189166667 C191.061574,0.460305556 201.215671,8.7395 203.007016,16.7317917 C203.007016,16.7317917 203.164152,16.7191806 203.446996,16.7191806 C206.797125,16.712875 227.846999,18.3270972 217.746328,60.77925 C217.746328,60.77925 217.7369,60.836 217.721186,60.9400417 C218.208306,60.836 218.723711,60.7697917 219.239115,60.7634861 C222.853232,60.7161944 226.611914,63.7081806 222.6301,79.0369861 C219.449677,91.2855278 216.501815,94.4383056 214.311346,94.4288472 C213.582237,94.4256944 212.937981,94.0725833 212.397435,93.5902083 C211.064926,101.960833 207.843648,111.914153 200.480277,119.846542 L200.869973,119.821319 C200.869973,119.821319 201.470231,129.572861 204.713508,135.105986 C204.85493,135.175347 224.713717,145.141278 247.866064,151.043278 C265.188684,155.454014 266.015217,175.515139 265.317535,185.427472 L265.317535,185.427472 Z M68.2695944,185.739597 C67.8798983,179.601139 68.0496047,170.719764 70.878044,162.301847 C72.6882452,156.916903 75.3846907,152.301236 78.8888127,148.584111 C83.1597561,144.053569 88.5117919,140.944931 94.7972127,139.343319 C102.525137,137.372833 109.828796,135.027167 116.04822,132.810764 C114.743995,132.422972 114.027457,132.262181 113.908034,132.195972 C113.625191,132.044639 97.9084959,127.901889 90.6959756,123.967222 C89.0020547,122.876361 87.9366759,122.062944 87.9366759,122.062944 L87.9366759,120.959472 L87.9303905,120.959472 L87.9303905,114.23775 C87.9303905,114.23775 109.096545,114.887222 119.137505,104.596556 C119.137505,104.596556 104.523901,100.444347 107.148064,73.7560833 C109.77537,47.0678194 103.87336,23.6332222 82.4903588,25.6194722 C82.4903588,25.6194722 73.2225059,14.4302639 54.774796,21.4672639 C48.4422346,23.8854444 31.4464569,29.992375 32.3107023,66.9713056 C33.1749476,103.950236 19.2087427,104.167778 19.2087427,104.167778 C19.2087427,104.167778 26.4086922,114.675986 50.8464081,114.458444 L50.8464081,121.974667 C50.8464081,121.974667 49.7841719,122.788083 48.0871083,123.878944 C40.8777307,127.813611 25.1578934,131.956361 24.8750495,132.107694 C24.5450649,132.28425 19.7712878,133.170181 10.3871547,137.599833 C1.00302148,142.029486 0.509615952,151.651764 0.509615952,151.651764 L0.509615952,167.239097 C14.7586648,183.620931 58.6906132,186.612917 68.2538808,187.076375 C68.2664517,186.575083 68.2664517,186.124236 68.2695944,185.739597 L68.2695944,185.739597 Z" id="Shape"></path>
            </g>
        </g>
    </g>
</svg>